<?xml version="1.0" encoding="UTF-8" standalone="no"?>
<svg
   xmlns:dc="http://purl.org/dc/elements/1.1/"
   xmlns:cc="http://creativecommons.org/ns#"
   xmlns:rdf="http://www.w3.org/1999/02/22-rdf-syntax-ns#"
   xmlns:svg="http://www.w3.org/2000/svg"
   xmlns="http://www.w3.org/2000/svg"
   xmlns:sodipodi="http://sodipodi.sourceforge.net/DTD/sodipodi-0.dtd"
   xmlns:inkscape="http://www.inkscape.org/namespaces/inkscape"
   inkscape:export-ydpi="96"
   inkscape:export-xdpi="96"
   inkscape:export-filename="/Users/paul/Projects/ReadyPrep/client/src/assets/ReadyPrep-Icon.png"
   inkscape:version="1.0 (4035a4f, 2020-05-01)"
   sodipodi:docname="ReadyPrep-Icon.svg"
   xml:space="preserve"
   viewBox="120 300 203.28 254.09999"
   id="Layer_1"
   height="101.64"
   width="101.64"
   version="1.1"><metadata
   id="metadata1015"><rdf:RDF><cc:Work
       rdf:about=""><dc:format>image/svg+xml</dc:format><dc:type
         rdf:resource="http://purl.org/dc/dcmitype/StillImage" /><dc:title></dc:title></cc:Work></rdf:RDF></metadata><defs
   id="defs1013" /><sodipodi:namedview
   fit-margin-bottom="0"
   fit-margin-right="0"
   fit-margin-left="0"
   fit-margin-top="0"
   inkscape:current-layer="Layer_1"
   inkscape:window-maximized="0"
   inkscape:window-y="0"
   inkscape:window-x="0"
   inkscape:cy="29.48"
   inkscape:cx="-2.36"
   inkscape:zoom="2.5428571"
   showgrid="false"
   id="namedview1011"
   inkscape:window-height="900"
   inkscape:window-width="1440"
   inkscape:pageshadow="2"
   inkscape:pageopacity="0"
   guidetolerance="10"
   gridtolerance="10"
   objecttolerance="10"
   borderopacity="1"
   bordercolor="#666666"
   pagecolor="#ffffff" />
<style
   id="style984"
   type="text/css">
	.st0{fill:#B7A5B7;}
	.st1{fill:#FFFFFF;}
</style>
<path
   style="stroke-width:1.02242"
   id="path986"
   d="m 348.69,349.43323 -15.2,102.75729 c -4.5,30.21043 -29.3,52.47625 -58.6,52.47625 H 94.590004 L 109.79,401.90948 c 4.5,-30.21043 29.3,-52.47625 58.6,-52.47625 z"
   class="st0" />
<g
   transform="matrix(1.3736845,0,0,1.3736845,-511.77303,-130.68058)"
   id="g1008">
	<g
   id="g1006">
		
		
		
		
		
		<path
   id="path998"
   d="m 532.8,452.7 c -0.4,-1 -0.6,-3.3 -0.6,-6.8 0,-3.5 1.7,-12.9 5,-28.1 3.3,-15.3 5,-27 5,-35.3 0,-1.6 -0.4,-3.3 -1.1,-5.2 -0.8,-1.8 -1.6,-3.3 -2.4,-4.3 l -1.1,-1.4 0.1,-1.7 c 4,-1.3 11.1,-1.9 21.2,-1.9 0.9,1.8 1.5,4.3 1.8,7.5 6.5,-5.4 12,-8 16.4,-8 4.4,0 7.9,1.8 10.6,5.5 2.7,3.7 4,9 4,16.1 0,12.3 -2.3,21.5 -6.8,27.5 -4.5,6 -10.2,9 -17.1,9 -3.6,0 -6.5,-0.5 -8.9,-1.5 l -1.3,-0.5 0.9,-5 c 0.8,0.2 1.7,0.3 2.7,0.3 2.2,0 4.1,-1 5.8,-3.1 1.7,-2 2.9,-4.6 3.8,-7.8 1.7,-6.3 2.6,-12.1 2.6,-17.5 0,-7.7 -1.6,-11.5 -4.7,-11.5 -2.5,0 -5.1,1 -7.9,2.9 -0.3,6 -2.1,16.4 -5.2,31.3 -3.1,14.9 -4.7,26.9 -4.7,36 -5,1.9 -10.9,3 -18.1,3.5 z"
   class="st1" />
		<path
   id="path1000"
   d="m 482.4,424.5 h -0.9 c -0.2,-0.7 -0.3,-2.2 -0.3,-4.7 0,-2.4 1.1,-9 3.4,-19.6 2.3,-10.6 3.4,-16.7 3.4,-18.2 0,-2.6 -1.2,-5.5 -3.6,-8.7 l -1.1,-1.5 0.1,-1.7 c 4.6,-1.3 11.9,-1.9 22.1,-1.9 1,2.2 1.5,5.3 1.5,9.3 0.9,-1.5 2.9,-3.6 5.9,-6.1 3,-2.6 6,-3.8 9.2,-3.8 4.6,0 6.9,4 6.9,12 -0.4,0.5 -1,1.2 -1.7,2 -0.7,0.8 -2.2,1.9 -4.3,3.4 -2.2,1.4 -4.3,2.3 -6.3,2.7 -0.1,0 -0.8,-1.1 -2.2,-3.4 -1.4,-2.3 -2.4,-3.4 -3.1,-3.4 -2.1,0.8 -4,2 -5.6,3.8 -3.9,17.6 -5.9,29 -5.9,34.2 0,1.9 0,3.2 0.1,4 -2.8,1 -8.8,1.6 -17.6,1.6 z"
   class="st1" />
		
		
	</g>
</g>
</svg>
