<?xml version="1.0" encoding="UTF-8"?>
<svg version="1.1" viewBox="0 0 1054.7 1054.8" xmlns="http://www.w3.org/2000/svg">
 <g transform="translate(-538.66 -539.33)">
  <path d="m697.33 1593.8c-42.141-4.6071-77.799-21.726-107.41-51.563-21.205-21.37-34.214-42.379-43.047-69.521-8.7753-26.965-8.2128 0.8451-8.2128-406 0-406.84-0.56255-379.04 8.2128-406 8.8331-27.142 21.842-48.152 43.047-69.521 26.06-26.262 55.389-41.996 92.073-49.393 11.421-2.3029 29.952-2.4197 384-2.4197s372.58 0.1168 384 2.4197c36.684 7.3971 66.013 23.131 92.073 49.393 21.205 21.369 34.214 42.379 43.047 69.521 8.7753 26.965 8.2128-0.84504 8.2128 406 0 406.85 0.5625 379.04-8.2128 406-8.8331 27.142-21.842 48.152-43.047 69.521-25.262 25.458-52.513 40.484-88.415 48.753l-12.992 2.9921-369.33 0.164c-203.13 0.091-371.43-0.065-374-0.3464zm665.61-193.73c16.206-5.0055 28.923-17.247 36.07-34.721l2.987-7.3029 0.3698-285.33c0.239-184.31-0.1-288.38-0.9554-293.95-2.5055-16.285-13.462-32.471-27.581-40.746-13.184-7.7266 4.4851-7.309-307.78-7.2735-188.36 0.0215-288.73 0.495-292.57 1.3806-10.073 2.3223-19.866 8.0448-27.547 16.098-9.131 9.5728-13.525 18.922-15.327 32.608-0.93548 7.107-1.2618 102.75-1.0003 293.21 0.36472 265.66 0.52915 283.08 2.7332 289.53 5.7026 16.695 19.355 30.554 35.529 36.068l8.7925 2.9973 288.86 0.035c284.28 0.033 289-0.013 297.42-2.6085zm-419.28-191.26c-7.9776-2.8469-14.359-8.5641-17.794-15.942l-3.1768-6.8227v-238.67l3.1768-6.8227c3.4352-7.3775 9.8168-13.095 17.794-15.942 7.3698-2.63 237.3-2.63 244.67 0 7.9776 2.8469 14.359 8.5641 17.794 15.942l3.1769 6.8227v238.67l-3.1769 6.8227c-3.4351 7.3775-9.8168 13.095-17.794 15.942-7.3697 2.63-237.3 2.63-244.67 0z" stroke-width="1.3333"/>
 </g>
</svg>
