<?xml version="1.0" encoding="utf-8"?>
<!-- Generator: Adobe Illustrator 24.1.2, SVG Export Plug-In . SVG Version: 6.00 Build 0)  -->
<svg version="1.1" width="280" height="80" id="Layer_1" xmlns="http://www.w3.org/2000/svg" xmlns:xlink="http://www.w3.org/1999/xlink"
	 viewBox="120 300 560 200" xml:space="preserve">
<style type="text/css">
	.st0{fill:#B7A5B7;}
	.st1{fill:#FFFFFF;}
</style>
<path class="st0" d="M660,326.3l-15.2,98.3c-4.5,28.9-29.3,50.2-58.6,50.2H405.9l15.2-98.3c4.5-28.9,29.3-50.2,58.6-50.2H660z"/>
<g>
	<g>
		<path class="st0" d="M141.1,424.5h-0.9c-0.2-0.7-0.3-2.2-0.3-4.7c0-2.4,1.1-9,3.4-19.6c2.3-10.6,3.4-16.7,3.4-18.2
			c0-2.6-1.2-5.5-3.6-8.7l-1.1-1.5l0.1-1.7c4.6-1.3,11.9-1.9,22.1-1.9c1,2.2,1.5,5.3,1.5,9.3c0.9-1.5,2.9-3.6,5.9-6.1
			c3-2.6,6-3.8,9.2-3.8c4.6,0,6.9,4,6.9,12c-0.4,0.5-1,1.2-1.7,2c-0.7,0.8-2.2,1.9-4.3,3.4c-2.2,1.4-4.3,2.3-6.3,2.7
			c-0.1,0-0.8-1.1-2.2-3.4c-1.4-2.3-2.4-3.4-3.1-3.4c-2.1,0.8-4,2-5.6,3.8c-3.9,17.6-5.9,29-5.9,34.2c0,1.9,0,3.2,0.1,4
			C155.9,423.9,150,424.5,141.1,424.5z"/>
		<path class="st0" d="M184.5,402c0-10.6,3.2-19,9.6-25.2c6.4-6.2,13.7-9.2,21.9-9.2c5,0,9.1,1.2,12.4,3.7c3.2,2.5,4.8,5.8,4.8,9.9
			c0,4.1-1,7.6-3.1,10.4c-2.1,2.8-4.6,5-7.6,6.5c-6,3-11.6,4.8-16.6,5.6l-3.1,0.4c0.6,8,3.9,12,9.8,12c2,0,4.2-0.5,6.5-1.5
			c2.3-1,4.1-2,5.4-3.1l1.9-1.5l3.1,4.1c-0.7,0.9-2,2.2-4.1,3.7s-4,2.8-5.7,3.8c-4.9,2.7-10.3,4.1-16.2,4.1
			c-5.9,0-10.5-2.1-13.9-6.3C186.2,415.2,184.5,409.4,184.5,402z M213.1,392.3c2.6-2.9,3.8-6.6,3.8-11.2c0-4.6-1.4-6.9-4.1-6.9
			c-3.2,0-5.7,2.7-7.5,8.2c-1.7,5.5-2.6,10.6-2.6,15.4C207.1,397,210.5,395.2,213.1,392.3z"/>
		<path class="st0" d="M273.9,371.3c0.2-0.2,0.6-1.3,1.4-3.3c4,0,9.4,1.2,16.1,3.6c-2.1,7.1-3.8,14.4-5.1,22.1
			c-1.3,7.7-1.9,13.2-1.9,16.5c0,3.3,0.3,4.9,1,4.9c0.5,0,2.4-0.8,5.6-2.4l1.5-0.8l2.3,4.5c-0.8,0.7-1.8,1.5-3,2.6
			c-1.2,1-3.6,2.4-7,4.1c-3.4,1.7-6.5,2.6-9.2,2.6c-5.3,0-8.3-2.4-9.2-7.1c-5.4,4.8-10.4,7.1-14.7,7.1c-4.4,0-8.1-1.7-11.1-5.1
			c-3-3.4-4.5-8.8-4.5-16.1c0-11.4,2.3-20.4,7-27c4.7-6.6,10.3-9.9,17-9.9C264.9,367.6,269.5,368.8,273.9,371.3z M259.4,414.8
			c2,0,4.3-0.8,6.9-2.4c0.6-12,2.6-23.9,6-35.6c-2.6-1.1-4.7-1.7-6.5-1.7c-3.1,0-5.7,3-7.8,9s-3.3,12.6-3.3,19.8
			C254.7,411.1,256.3,414.8,259.4,414.8z"/>
		<path class="st0" d="M357.6,416.3c-7.2,6.2-13.6,9.3-19.1,9.3s-8.7-2.7-9.5-8.2c-2.6,2.5-5.4,4.6-8.5,6c-3.1,1.4-5.9,2.2-8.3,2.2
			c-4.1,0-7.6-1.8-10.5-5.4c-2.9-3.6-4.3-9.1-4.3-16.6c0-11.2,2.4-20.1,7.1-26.5c4.8-6.4,10.1-9.6,16.1-9.6s11,1.4,15.1,4.1
			c2.6-13.8,4-24.6,4-32.5l-0.6-5.4c6.4-2.2,12.6-3.3,18.8-3.3c0.7,1.4,1,3.1,1,5c0,6.2-1.9,18.8-5.6,37.8
			c-3.7,19-5.6,31.9-5.6,38.7c0,2,0.5,3.1,1.4,3.1c0.5,0,2.1-0.8,4.8-2.4l1.3-0.8L357.6,416.3z M326.9,375.1c-3,0-5.5,2.9-7.7,8.8
			c-2.2,5.9-3.3,11.7-3.3,17.4c0,5.7,0.4,9.4,1.2,11c0.8,1.6,2,2.4,3.6,2.4c2.8,0,5.6-1.1,8.3-3.4c0.3-3.4,2.2-14.7,5.7-33.9
			C331.9,375.9,329.3,375.1,326.9,375.1z"/>
		<path class="st0" d="M372.4,424.6c-7.1,0-10.7-3.9-10.7-11.7c0-1.9,0.8-7.3,2.6-16.2c1.7-8.9,2.6-16.4,2.6-22.3
			c0-1.3-0.2-2.5-0.5-3.6c4.6-1.8,10.9-2.7,18.9-2.7c0.4,1.2,0.6,3.2,0.6,6.1c0,2.9-0.9,8.9-2.8,18c-1.9,9.1-2.8,15-2.8,17.6
			c0,2.6,1.1,4,3.3,4c2.6,0,5.8-1.3,9.6-4c0.4-5,2.1-18.2,5.1-39.7c3-1.2,8.3-1.8,16.1-1.8h2.4c-1.6,6.4-3.2,15.6-4.7,27.6
			c-1.5,12-2.8,20.3-3.7,25c-1.8,9.4-5.1,17-9.9,22.9c-4.8,5.9-11.1,8.9-18.8,8.9c-3.1,0-5.8-0.8-8.4-2.4c-2.5-1.6-3.8-3.7-3.8-6.2
			c0-3.4,2.1-6.5,6.3-9.3c4.2-2.8,9.8-5,16.8-6.5c0.8-3.7,1.4-7.4,1.8-10.8C385.4,422.2,378.8,424.6,372.4,424.6z M378.6,437.9
			c-2.9,1.7-4.3,3.4-4.3,5c0,1.6,0.9,2.4,2.7,2.4c1.8,0,3.9-0.9,6.2-2.6c2.3-1.7,4.2-4.6,5.7-8.5
			C384.9,434.9,381.5,436.1,378.6,437.9z"/>
		<path class="st1" d="M422.8,452.7c-0.4-1-0.6-3.3-0.6-6.8c0-3.5,1.7-12.9,5-28.1c3.3-15.3,5-27,5-35.3c0-1.6-0.4-3.3-1.1-5.2
			c-0.8-1.8-1.6-3.3-2.4-4.3l-1.1-1.4l0.1-1.7c4-1.3,11.1-1.9,21.2-1.9c0.9,1.8,1.5,4.3,1.8,7.5c6.5-5.4,12-8,16.4-8
			c4.4,0,7.9,1.8,10.6,5.5c2.7,3.7,4,9,4,16.1c0,12.3-2.3,21.5-6.8,27.5c-4.5,6-10.2,9-17.1,9c-3.6,0-6.5-0.5-8.9-1.5l-1.3-0.5
			l0.9-5c0.8,0.2,1.7,0.3,2.7,0.3c2.2,0,4.1-1,5.8-3.1c1.7-2,2.9-4.6,3.8-7.8c1.7-6.3,2.6-12.1,2.6-17.5c0-7.7-1.6-11.5-4.7-11.5
			c-2.5,0-5.1,1-7.9,2.9c-0.3,6-2.1,16.4-5.2,31.3c-3.1,14.9-4.7,26.9-4.7,36C435.9,451.1,430,452.2,422.8,452.7z"/>
		<path class="st1" d="M489.9,424.5H489c-0.2-0.7-0.3-2.2-0.3-4.7c0-2.4,1.1-9,3.4-19.6c2.3-10.6,3.4-16.7,3.4-18.2
			c0-2.6-1.2-5.5-3.6-8.7l-1.1-1.5l0.1-1.7c4.6-1.3,11.9-1.9,22.1-1.9c1,2.2,1.5,5.3,1.5,9.3c0.9-1.5,2.9-3.6,5.9-6.1
			c3-2.6,6-3.8,9.2-3.8c4.6,0,6.9,4,6.9,12c-0.4,0.5-1,1.2-1.7,2c-0.7,0.8-2.2,1.9-4.3,3.4c-2.2,1.4-4.3,2.3-6.3,2.7
			c-0.1,0-0.8-1.1-2.2-3.4c-1.4-2.3-2.4-3.4-3.1-3.4c-2.1,0.8-4,2-5.6,3.8c-3.9,17.6-5.9,29-5.9,34.2c0,1.9,0,3.2,0.1,4
			C504.7,423.9,498.7,424.5,489.9,424.5z"/>
		<path class="st1" d="M533.3,402c0-10.6,3.2-19,9.6-25.2c6.4-6.2,13.7-9.2,21.9-9.2c5,0,9.1,1.2,12.4,3.7c3.2,2.5,4.8,5.8,4.8,9.9
			c0,4.1-1,7.6-3.1,10.4c-2.1,2.8-4.6,5-7.6,6.5c-6,3-11.6,4.8-16.6,5.6l-3.1,0.4c0.6,8,3.9,12,9.8,12c2,0,4.2-0.5,6.5-1.5
			c2.3-1,4.1-2,5.4-3.1l1.9-1.5l3.1,4.1c-0.7,0.9-2,2.2-4.1,3.7c-2,1.5-4,2.8-5.7,3.8c-4.9,2.7-10.3,4.1-16.2,4.1
			c-5.9,0-10.5-2.1-13.9-6.3C535,415.2,533.3,409.4,533.3,402z M561.9,392.3c2.6-2.9,3.8-6.6,3.8-11.2c0-4.6-1.4-6.9-4.1-6.9
			c-3.2,0-5.7,2.7-7.5,8.2c-1.7,5.5-2.6,10.6-2.6,15.4C555.9,397,559.3,395.2,561.9,392.3z"/>
		<path class="st1" d="M581,452.7c-0.4-1-0.6-3.3-0.6-6.8c0-3.5,1.7-12.9,5-28.1c3.3-15.3,5-27,5-35.3c0-1.6-0.4-3.3-1.1-5.2
			c-0.8-1.8-1.6-3.3-2.4-4.3l-1.1-1.4l0.1-1.7c4-1.3,11.1-1.9,21.2-1.9c0.9,1.8,1.5,4.3,1.8,7.5c6.5-5.4,12-8,16.4-8
			c4.4,0,7.9,1.8,10.6,5.5c2.7,3.7,4,9,4,16.1c0,12.3-2.3,21.5-6.8,27.5c-4.5,6-10.2,9-17.1,9c-3.6,0-6.5-0.5-8.9-1.5l-1.3-0.5
			l0.9-5c0.8,0.2,1.7,0.3,2.7,0.3c2.2,0,4.1-1,5.8-3.1c1.7-2,2.9-4.6,3.8-7.8c1.7-6.3,2.6-12.1,2.6-17.5c0-7.7-1.6-11.5-4.7-11.5
			c-2.5,0-5.1,1-7.9,2.9c-0.3,6-2.1,16.4-5.2,31.3c-3.1,14.9-4.7,26.9-4.7,36C594.1,451.1,588.2,452.2,581,452.7z"/>
	</g>
</g>
</svg>
