<svg version="1.1" viewBox="0 0 520.1 148.5" xml:space="preserve" xmlns="http://www.w3.org/2000/svg">
<style type="text/css">
	.st0{fill:#B7A5B7;}
	.st1{fill:#FFFFFF;}
</style>
<path class="st0" d="m520.1 0-15.2 98.3c-4.5 28.9-29.3 50.2-58.6 50.2h-180.3l15.2-98.3c4.5-28.9 29.3-50.2 58.6-50.2z"/>
<g transform="translate(-139.9,-326.3)">
	
		<path class="st0" d="m141.1 424.5h-0.9c-0.2-0.7-0.3-2.2-0.3-4.7 0-2.4 1.1-9 3.4-19.6s3.4-16.7 3.4-18.2c0-2.6-1.2-5.5-3.6-8.7l-1.1-1.5 0.1-1.7c4.6-1.3 11.9-1.9 22.1-1.9 1 2.2 1.5 5.3 1.5 9.3 0.9-1.5 2.9-3.6 5.9-6.1 3-2.6 6-3.8 9.2-3.8 4.6 0 6.9 4 6.9 12-0.4 0.5-1 1.2-1.7 2s-2.2 1.9-4.3 3.4c-2.2 1.4-4.3 2.3-6.3 2.7-0.1 0-0.8-1.1-2.2-3.4s-2.4-3.4-3.1-3.4c-2.1 0.8-4 2-5.6 3.8-3.9 17.6-5.9 29-5.9 34.2 0 1.9 0 3.2 0.1 4-2.8 1-8.7 1.6-17.6 1.6z"/>
		<path class="st0" d="m184.5 402c0-10.6 3.2-19 9.6-25.2s13.7-9.2 21.9-9.2c5 0 9.1 1.2 12.4 3.7 3.2 2.5 4.8 5.8 4.8 9.9s-1 7.6-3.1 10.4-4.6 5-7.6 6.5c-6 3-11.6 4.8-16.6 5.6l-3.1 0.4c0.6 8 3.9 12 9.8 12 2 0 4.2-0.5 6.5-1.5s4.1-2 5.4-3.1l1.9-1.5 3.1 4.1c-0.7 0.9-2 2.2-4.1 3.7s-4 2.8-5.7 3.8c-4.9 2.7-10.3 4.1-16.2 4.1s-10.5-2.1-13.9-6.3-5.1-10-5.1-17.4zm28.6-9.7c2.6-2.9 3.8-6.6 3.8-11.2s-1.4-6.9-4.1-6.9c-3.2 0-5.7 2.7-7.5 8.2-1.7 5.5-2.6 10.6-2.6 15.4 4.4-0.8 7.8-2.6 10.4-5.5z"/>
		<path class="st0" d="m273.9 371.3c0.2-0.2 0.6-1.3 1.4-3.3 4 0 9.4 1.2 16.1 3.6-2.1 7.1-3.8 14.4-5.1 22.1s-1.9 13.2-1.9 16.5 0.3 4.9 1 4.9c0.5 0 2.4-0.8 5.6-2.4l1.5-0.8 2.3 4.5c-0.8 0.7-1.8 1.5-3 2.6-1.2 1-3.6 2.4-7 4.1s-6.5 2.6-9.2 2.6c-5.3 0-8.3-2.4-9.2-7.1-5.4 4.8-10.4 7.1-14.7 7.1-4.4 0-8.1-1.7-11.1-5.1s-4.5-8.8-4.5-16.1c0-11.4 2.3-20.4 7-27s10.3-9.9 17-9.9c4.8 0 9.4 1.2 13.8 3.7zm-14.5 43.5c2 0 4.3-0.8 6.9-2.4 0.6-12 2.6-23.9 6-35.6-2.6-1.1-4.7-1.7-6.5-1.7-3.1 0-5.7 3-7.8 9s-3.3 12.6-3.3 19.8 1.6 10.9 4.7 10.9z"/>
		<path class="st0" d="m357.6 416.3c-7.2 6.2-13.6 9.3-19.1 9.3s-8.7-2.7-9.5-8.2c-2.6 2.5-5.4 4.6-8.5 6s-5.9 2.2-8.3 2.2c-4.1 0-7.6-1.8-10.5-5.4s-4.3-9.1-4.3-16.6c0-11.2 2.4-20.1 7.1-26.5 4.8-6.4 10.1-9.6 16.1-9.6s11 1.4 15.1 4.1c2.6-13.8 4-24.6 4-32.5l-0.6-5.4c6.4-2.2 12.6-3.3 18.8-3.3 0.7 1.4 1 3.1 1 5 0 6.2-1.9 18.8-5.6 37.8s-5.6 31.9-5.6 38.7c0 2 0.5 3.1 1.4 3.1 0.5 0 2.1-0.8 4.8-2.4l1.3-0.8zm-30.7-41.2c-3 0-5.5 2.9-7.7 8.8s-3.3 11.7-3.3 17.4 0.4 9.4 1.2 11 2 2.4 3.6 2.4c2.8 0 5.6-1.1 8.3-3.4 0.3-3.4 2.2-14.7 5.7-33.9-2.8-1.5-5.4-2.3-7.8-2.3z"/>
		<path class="st0" d="m372.4 424.6c-7.1 0-10.7-3.9-10.7-11.7 0-1.9 0.8-7.3 2.6-16.2 1.7-8.9 2.6-16.4 2.6-22.3 0-1.3-0.2-2.5-0.5-3.6 4.6-1.8 10.9-2.7 18.9-2.7 0.4 1.2 0.6 3.2 0.6 6.1s-0.9 8.9-2.8 18-2.8 15-2.8 17.6 1.1 4 3.3 4c2.6 0 5.8-1.3 9.6-4 0.4-5 2.1-18.2 5.1-39.7 3-1.2 8.3-1.8 16.1-1.8h2.4c-1.6 6.4-3.2 15.6-4.7 27.6s-2.8 20.3-3.7 25c-1.8 9.4-5.1 17-9.9 22.9s-11.1 8.9-18.8 8.9c-3.1 0-5.8-0.8-8.4-2.4-2.5-1.6-3.8-3.7-3.8-6.2 0-3.4 2.1-6.5 6.3-9.3s9.8-5 16.8-6.5c0.8-3.7 1.4-7.4 1.8-10.8-7 4.7-13.6 7.1-20 7.1zm6.2 13.3c-2.9 1.7-4.3 3.4-4.3 5s0.9 2.4 2.7 2.4 3.9-0.9 6.2-2.6 4.2-4.6 5.7-8.5c-4 0.7-7.4 1.9-10.3 3.7z"/>
		<path class="st1" d="m422.8 452.7c-0.4-1-0.6-3.3-0.6-6.8s1.7-12.9 5-28.1c3.3-15.3 5-27 5-35.3 0-1.6-0.4-3.3-1.1-5.2-0.8-1.8-1.6-3.3-2.4-4.3l-1.1-1.4 0.1-1.7c4-1.3 11.1-1.9 21.2-1.9 0.9 1.8 1.5 4.3 1.8 7.5 6.5-5.4 12-8 16.4-8s7.9 1.8 10.6 5.5 4 9 4 16.1c0 12.3-2.3 21.5-6.8 27.5s-10.2 9-17.1 9c-3.6 0-6.5-0.5-8.9-1.5l-1.3-0.5 0.9-5c0.8 0.2 1.7 0.3 2.7 0.3 2.2 0 4.1-1 5.8-3.1 1.7-2 2.9-4.6 3.8-7.8 1.7-6.3 2.6-12.1 2.6-17.5 0-7.7-1.6-11.5-4.7-11.5-2.5 0-5.1 1-7.9 2.9-0.3 6-2.1 16.4-5.2 31.3s-4.7 26.9-4.7 36c-5 1.9-10.9 3-18.1 3.5z"/>
		<path class="st1" d="m489.9 424.5h-0.9c-0.2-0.7-0.3-2.2-0.3-4.7 0-2.4 1.1-9 3.4-19.6s3.4-16.7 3.4-18.2c0-2.6-1.2-5.5-3.6-8.7l-1.1-1.5 0.1-1.7c4.6-1.3 11.9-1.9 22.1-1.9 1 2.2 1.5 5.3 1.5 9.3 0.9-1.5 2.9-3.6 5.9-6.1 3-2.6 6-3.8 9.2-3.8 4.6 0 6.9 4 6.9 12-0.4 0.5-1 1.2-1.7 2s-2.2 1.9-4.3 3.4c-2.2 1.4-4.3 2.3-6.3 2.7-0.1 0-0.8-1.1-2.2-3.4s-2.4-3.4-3.1-3.4c-2.1 0.8-4 2-5.6 3.8-3.9 17.6-5.9 29-5.9 34.2 0 1.9 0 3.2 0.1 4-2.8 1-8.8 1.6-17.6 1.6z"/>
		<path class="st1" d="m533.3 402c0-10.6 3.2-19 9.6-25.2s13.7-9.2 21.9-9.2c5 0 9.1 1.2 12.4 3.7 3.2 2.5 4.8 5.8 4.8 9.9s-1 7.6-3.1 10.4-4.6 5-7.6 6.5c-6 3-11.6 4.8-16.6 5.6l-3.1 0.4c0.6 8 3.9 12 9.8 12 2 0 4.2-0.5 6.5-1.5s4.1-2 5.4-3.1l1.9-1.5 3.1 4.1c-0.7 0.9-2 2.2-4.1 3.7-2 1.5-4 2.8-5.7 3.8-4.9 2.7-10.3 4.1-16.2 4.1s-10.5-2.1-13.9-6.3-5.1-10-5.1-17.4zm28.6-9.7c2.6-2.9 3.8-6.6 3.8-11.2s-1.4-6.9-4.1-6.9c-3.2 0-5.7 2.7-7.5 8.2-1.7 5.5-2.6 10.6-2.6 15.4 4.4-0.8 7.8-2.6 10.4-5.5z"/>
		<path class="st1" d="m581 452.7c-0.4-1-0.6-3.3-0.6-6.8s1.7-12.9 5-28.1c3.3-15.3 5-27 5-35.3 0-1.6-0.4-3.3-1.1-5.2-0.8-1.8-1.6-3.3-2.4-4.3l-1.1-1.4 0.1-1.7c4-1.3 11.1-1.9 21.2-1.9 0.9 1.8 1.5 4.3 1.8 7.5 6.5-5.4 12-8 16.4-8s7.9 1.8 10.6 5.5 4 9 4 16.1c0 12.3-2.3 21.5-6.8 27.5s-10.2 9-17.1 9c-3.6 0-6.5-0.5-8.9-1.5l-1.3-0.5 0.9-5c0.8 0.2 1.7 0.3 2.7 0.3 2.2 0 4.1-1 5.8-3.1 1.7-2 2.9-4.6 3.8-7.8 1.7-6.3 2.6-12.1 2.6-17.5 0-7.7-1.6-11.5-4.7-11.5-2.5 0-5.1 1-7.9 2.9-0.3 6-2.1 16.4-5.2 31.3s-4.7 26.9-4.7 36c-5 1.9-10.9 3-18.1 3.5z"/>
	
</g>
</svg>
